<?xml version="1.0" encoding="UTF-8"?>
<svg id="Layer_2" data-name="Layer 2" xmlns="http://www.w3.org/2000/svg" viewBox="0 0 810 810">
  <defs>
    <style>
      .cls-1 {
        fill: #05203b;
      }

      .cls-2 {
        fill: #f5f6f1;
      }
    </style>
  </defs>
  <g id="konqvist-icon">
    <g>
      <path class="cls-1" d="M171.16,2h467.68c93.36,0,169.16,75.8,169.16,169.16v467.68c0,93.36-75.8,169.16-169.16,169.16H171.16c-93.36,0-169.16-75.8-169.16-169.16V171.16C2,77.8,77.8,2,171.16,2Z"/>
      <path class="cls-2" d="M640,0H170C76.11,0,0,76.11,0,170v470c0,93.89,76.11,170,170,170h470c93.89,0,170-76.11,170-170V170C810,76.11,733.89,0,640,0ZM781.5,636.48c0,79.97-65.06,145.02-145.03,145.02H173.52c-79.97,0-145.02-65.06-145.02-145.02V173.52C28.5,93.56,93.56,28.5,173.52,28.5h462.95c79.97,0,145.03,65.06,145.03,145.02v462.95Z"/>
      <path class="cls-2" d="M401.36,760.49c-3.51.77-32.13-48.67-32.13-59.16v-89.84h32.13v149ZM401.36,279.9h-32.13v96.41s0-27.32,32.13-38.82v-57.59ZM408.64,760.49c3.51.77,32.13-48.67,32.13-59.16v-89.84h-32.13v149ZM408.64,337.49c32.13,11.5,32.13,38.82,32.13,38.82v-96.41h-32.13v57.59ZM535.44,255.31c-5.06-5.07-51.69-11.6-130.44-11.6s-125.38,6.53-130.44,11.6c-5.06,5.07,7.69,31.92,13.66,31.92,9.76,0,26.43-20.31,116.78-20.31s107.03,20.31,116.78,20.31c5.97,0,18.72-26.85,13.66-31.92ZM405,49.5c-26.07,15.11-34.33,34.23-26.28,47.82q8.05,13.58,26.28,13.48,18.24.1,26.28-13.48c8.05-13.58-.21-32.7-26.28-47.82ZM421.05,119.22h-32.1l-8.03,112.48h48.16l-8.03-112.48ZM580.96,421.59c-14.09-5.48-29-10.89-40.18,2.9-9.79,12.07-6.92,31.86,6.12,40.68,7.08,4.79,22.37,8.25,22.37,8.25,0,0-11.23,15.47-23.83,22.92-43.81,25.88-115.27,5.78-123.64-49.91,22.95,13.7,52.74,4.62,49.64-25.57-2.13-20.74-25.9-30.59-43.81-22.63-.91-7.83,1.24-18.1,0-25.56-1.34-8.05-13.38-20.5-22.62-22.04-9.24,1.54-21.28,13.99-22.62,22.04-1.24,7.46.91,17.73,0,25.56-17.91-7.96-41.68,1.89-43.81,22.63-3.1,30.2,26.69,39.27,49.64,25.57-8.37,55.69-79.83,75.79-123.64,49.91-12.6-7.44-23.83-22.92-23.83-22.92,0,0,15.29-3.46,22.37-8.25,13.04-8.82,15.91-28.62,6.12-40.68-11.19-13.79-26.1-8.38-40.19-2.9,1.42-30.64-25.59-49.31-54.04-48.19l64.45,183.84c54.9-5.65,110.17-10.03,165.55-10.3,55.38.27,110.66,4.65,165.55,10.3l64.45-183.84c-28.45-1.13-55.46,17.55-54.04,48.19ZM559.44,569.48c-23.52-5.87-66.58-9.3-154.44-9.3s-130.92,3.43-154.44,9.3c-15.99,3.99-9.68,28.61-6.92,42.01,59.47-13.81,134.26-12.93,161.36-13.05,27.1.11,101.89-.77,161.36,13.05,2.76-13.4,9.07-38.02-6.92-42.01Z"/>
    </g>
  </g>
</svg>