<?xml version="1.0" encoding="UTF-8"?>
<svg id="Layer_2" data-name="Layer 2" xmlns="http://www.w3.org/2000/svg" viewBox="0 0 806 806">
  <defs>
    <style>
      .cls-1 {
        fill: #05203b;
      }

      .cls-2 {
        fill: #f5f6f1;
      }
    </style>
  </defs>
  <g id="konqvist-icon">
    <g>
      <path class="cls-1" d="M169.16,0h467.68c93.36,0,169.16,75.8,169.16,169.16v467.68c0,93.36-75.8,169.16-169.16,169.16H169.16C75.8,806,0,730.2,0,636.84V169.16C0,75.8,75.8,0,169.16,0Z"/>
      <path class="cls-2" d="M396.65,769.99c-3.62.8-33.18-50.25-33.18-61.07v-92.74h33.18v153.82ZM396.65,273.85h-33.18v99.53s0-28.21,33.18-40.08v-59.45ZM404.16,769.99c3.62.8,33.18-50.25,33.18-61.07v-92.74h-33.18v153.82ZM404.16,333.3c33.18,11.88,33.18,40.08,33.18,40.08v-99.53h-33.18v59.45ZM535.09,248.46c-5.23-5.24-53.37-11.97-134.69-11.97s-129.46,6.74-134.69,11.97,7.94,32.96,14.1,32.96c10.07,0,27.29-20.97,120.59-20.97s110.51,20.97,120.59,20.97c6.17,0,19.33-27.72,14.1-32.96ZM400.4,36c-26.92,15.6-35.45,35.34-27.14,49.36q8.31,14.02,27.14,13.92,18.83.1,27.14-13.92c8.31-14.02-.22-33.76-27.14-49.36ZM416.97,107.97h-33.14l-8.29,116.12h49.73l-8.29-116.12ZM582.09,420.12c-14.55-5.66-29.94-11.24-41.49,2.99-10.11,12.46-7.14,32.89,6.32,42,7.31,4.95,23.1,8.52,23.1,8.52,0,0-11.6,15.97-24.61,23.66-45.23,26.72-119.02,5.96-127.67-51.53,23.7,14.14,54.46,4.77,51.26-26.4-2.2-21.41-26.74-31.58-45.24-23.36-.94-8.09,1.28-18.69,0-26.39-1.38-8.31-13.82-21.16-23.36-22.75-9.54,1.59-21.97,14.44-23.36,22.75-1.28,7.7.94,18.3,0,26.39-18.5-8.21-43.04,1.96-45.24,23.36-3.21,31.17,27.56,40.54,51.26,26.4-8.64,57.49-82.43,78.25-127.67,51.53-13.01-7.68-24.61-23.66-24.61-23.66,0,0,15.78-3.57,23.1-8.52,13.46-9.11,16.43-29.54,6.32-42-11.55-14.23-26.94-8.65-41.49-2.99,1.47-31.63-26.43-50.91-55.8-49.75l66.55,189.79c56.69-5.83,113.76-10.36,170.94-10.64,57.18.28,114.26,4.8,170.94,10.64l66.55-189.79c-29.37-1.16-57.27,18.12-55.8,49.75ZM559.87,572.81c-24.29-6.06-68.75-9.6-159.47-9.6s-135.18,3.54-159.47,9.6c-16.51,4.12-10,29.54-7.15,43.37,61.41-14.26,138.63-13.35,166.62-13.47,27.98.12,105.21-.79,166.62,13.47,2.85-13.84,9.36-39.25-7.15-43.37Z"/>
    </g>
  </g>
</svg>