<?xml version="1.0" encoding="UTF-8"?>
<svg id="Layer_2" data-name="Layer 2" xmlns="http://www.w3.org/2000/svg" viewBox="0 0 807.14 255.41">
  <defs>
    <style>
      .cls-1 {
        fill: #f5f6f1;
      }
    </style>
  </defs>
  <g id="konqvist-logo-light">
    <path id="light" class="cls-1" d="M34.18,100.34v27.63c0,1.88.43,2.84,1.29,2.89.46,0,1.67-.76,3.65-2.28l7.45-6.7,10.64-9.44c13.98-12.53,20.97-21.08,20.97-25.65,0-1.52-.66-2.74-1.98-3.65-1.32-.91-3.07-1.37-5.25-1.37-1.62,0-2.44-.7-2.44-2.09,0-1.29.94-1.94,2.82-1.94,2.08,0,4.22.13,6.41.38,5.44.61,9.25.91,11.44.91,1.63,0,3.64-.13,6.03-.38,5.19-.61,8.79-.91,10.83-.91,1.78,0,2.67.75,2.67,2.25,0,1.14-1.12,1.88-3.35,2.25-3.55.56-7.59,2.43-12.1,5.62-4.52,3.19-10.95,8.71-19.29,16.57-3.87,3.65-6.51,6.08-7.94,7.29-4.27,3.6-6.41,6.26-6.41,7.98,0,1.22,1.14,3.42,3.43,6.61l5.49,7.45c12.71,17.43,21.92,29.03,27.61,34.8,4.01,4.05,9.67,7.09,16.97,9.12l1.6.46c1.27.36,1.88,1.18,1.83,2.47-.05,1.24-.84,1.86-2.35,1.86-.56,0-1.29-.05-2.2-.15-4.96-.51-9.17-.76-12.61-.76-1.62,0-3.32.1-5.09.3-3.29.41-5.32.61-6.08.61-2.63,0-5.02-1.32-7.14-3.96-.2-.25-1.16-1.45-2.89-3.58-4.38-5.23-10.01-12.42-16.9-21.58-6.89-9.16-11.15-15.13-12.78-17.92-1.42-2.33-2.59-3.5-3.5-3.5-.61,0-1.37.46-2.28,1.37l-2.28,2.21-3.27,3.2c-1.32,1.32-2.14,2.67-2.47,4.07-.33,1.39-.49,4.29-.49,8.7v3.27c0,8.2.85,14.04,2.55,17.51s4.65,5.35,8.87,5.66c2.79.21,4.19.98,4.19,2.32,0,1.55-.84,2.32-2.51,2.32-.96,0-2.56-.2-4.79-.61-2.74-.46-6.24-.69-10.5-.69-5.68,0-11.06.25-16.14.76-3.25.3-5.86.46-7.84.46s-2.97-.74-2.97-2.23c0-.99.66-1.62,1.98-1.88,3.65-.56,6.18-2.17,7.57-4.83,1.4-2.66,2.09-7.21,2.09-13.64v-61.02l.08-2.96-.69-4.33c-.76-2.74-2.19-4.81-4.3-6.23-2.11-1.42-5.14-2.33-9.1-2.74-1.22-.15-1.97-.39-2.25-.7s-.42-1.06-.42-2.24.71-1.78,2.13-1.78c1.27,0,2.54.08,3.81.23,5.28.56,11.39.84,18.34.84,5.94,0,11.29-.25,16.06-.76,1.32-.15,2.44-.25,3.35-.3,1.47-.05,2.21.62,2.21,2.02,0,.93-.63,1.55-1.9,1.86-4.36,1.17-7.08,2.63-8.14,4.38-1.07,1.75-1.6,5.57-1.6,11.46l-.08,2.74ZM168.82,75.99c15.83,0,28.62,4.61,38.36,13.83,9.74,9.22,14.61,21.31,14.61,36.29,0,16.3-5.02,30.11-15.07,41.44-9.79,11.07-23.29,16.61-40.49,16.61s-29.58-4.81-39.43-14.43c-9.85-9.62-14.77-22.48-14.77-38.58,0-6.91,1.24-13.77,3.73-20.6,2.49-6.83,5.86-12.55,10.12-17.18,4.92-5.43,11.18-9.69,18.76-12.76,7.59-3.07,15.64-4.61,24.17-4.61ZM163.34,81.69c-10.2,0-18.17,3.78-23.9,11.34-5.73,7.56-8.6,18.09-8.6,31.59,0,15.93,3.6,28.89,10.81,38.86,7.2,9.97,16.57,14.96,28.09,14.96,10.4,0,18.72-4.12,24.97-12.37,6.24-8.25,9.36-19.27,9.36-33.07,0-7.97-1.45-15.74-4.34-23.33-2.89-7.58-6.75-13.61-11.57-18.08-7-6.6-15.27-9.9-24.81-9.9ZM272.53,95.32l40.25,45.21,2.58,2.89c3.44,3.86,5.75,5.78,6.91,5.78,1.06,0,1.65-1.55,1.75-4.64.46-11.2.68-21.87.68-32.01,0-11.91-1.21-19.97-3.62-24.18-2.41-4.21-7.14-6.56-14.2-7.07-1.67-.1-2.51-.7-2.51-1.79,0-1.35.74-2.02,2.21-2.02,1.83,0,4.78.25,8.85.76,2.64.3,4.83.46,6.56.46,3.51,0,9.08-.48,16.7-1.45,1.02-.1,1.75-.15,2.21-.15,1.63,0,2.44.72,2.44,2.17,0,1.29-.81,2.06-2.44,2.32-6.55,1.22-9.82,7.02-9.82,17.42v3.73l-1.08,47.54-.31,6.54-.08,8.44.08,5.78.31,9.51c0,1.42-.51,2.1-1.54,2.05-.91-.05-1.85-.61-2.81-1.68l-69.24-76.95c-1.22-1.32-2.05-1.98-2.51-1.98-1.22,0-1.82,1.14-1.82,3.42l-.08,2.2v29.5c0,15.77.79,26.31,2.36,31.63,1.67,5.68,6.62,8.9,14.84,9.66,1.52.16,2.28.8,2.28,1.94,0,1.55-.79,2.32-2.36,2.32-.61,0-1.6-.1-2.98-.3-4.27-.71-9-1.07-14.18-1.07s-9.71.36-13.73,1.09c-1.78.29-3.08.43-3.89.43-1.37,0-2.06-.62-2.06-1.86,0-1.03.73-1.76,2.21-2.17,3.7-1.06,6.41-3.25,8.11-6.57,1.7-3.32,2.55-8.09,2.55-14.31l.53-18.07v-32.96c0-15.59-5.76-23.79-17.28-24.6-1.57-.1-2.36-.75-2.36-1.94,0-1.45.87-2.17,2.6-2.17l5.27.23,3.21-.08c3.97,0,8.22-.23,12.74-.68,1.68-.15,3.08-.23,4.2-.23,1.57,0,2.81.34,3.72,1.03.91.69,2.84,2.78,5.77,6.28l5.24,6.17c2.08,2.44,3.32,3.91,3.72,4.41ZM408.89,76.14c15.43,0,27.86,4.71,37.3,14.12,9.44,9.41,14.16,21.78,14.16,37.1,0,11.01-2.46,21.01-7.38,29.98-2.89,5.33-6.34,9.72-10.34,13.17-4.01,3.45-9.3,6.62-15.89,9.51-1.83.81-2.76,1.5-2.81,2.05-.05.77,1.55,1.99,4.79,3.68l8.52,4.53c4.11,2.2,8.31,3.3,12.62,3.3,2.89,0,6.08-1.39,9.58-4.18.51-.41.96-.65,1.37-.7.41-.05.84.23,1.29.84s.66,1.17.61,1.67c-.1,1.07-1.88,3.12-5.33,6.16-6.75,5.89-13.22,8.83-19.41,8.83-3.76,0-7.71-.81-11.87-2.44-4.16-1.62-9.87-4.59-17.13-8.9-8.83-5.18-14.72-8.44-17.66-9.78-2.94-1.35-5.76-2.02-8.45-2.02-4.11,0-7.57,1.68-10.39,5.02-2.82,3.35-4.22,7.43-4.22,12.25,0,1.62-.66,2.44-1.98,2.44-1.62,0-2.44-1.07-2.44-3.2l-.23-5.86,1.06-5.02c1.16-3.25,3.75-6.9,7.78-10.96.5-.51.76-.89.76-1.14,0-.35-1.16-1.4-3.49-3.12-5.62-4.16-10.11-10.04-13.47-17.62-3.36-7.59-5.05-15.59-5.05-24.01,0-16.59,5.33-30.03,15.98-40.3,10.66-10.28,24.56-15.41,41.71-15.41ZM401.19,82c-9.86,0-17.67,3.58-23.41,10.73-5.75,7.15-8.62,16.85-8.62,29.08,0,16.44,3.85,29.98,11.55,40.61,7.7,10.63,17.5,15.95,29.4,15.95,10.02,0,18.05-3.93,24.1-11.8,6.05-7.86,9.08-18.29,9.08-31.28,0-14.82-4.09-27.4-12.28-37.75-8.19-10.35-18.13-15.53-29.82-15.53ZM505.98,115.53l16.98,41.59c.76,1.83,1.45,2.76,2.07,2.81.56.05,1.17-.66,1.83-2.13l17.18-38.02c5.65-12.47,8.48-21.47,8.48-26.99,0-3.14-1.1-5.72-3.31-7.72-2.21-2-5.37-3.31-9.48-3.92-1.78-.21-2.66-.9-2.66-2.1s.63-1.78,1.9-1.78c.66,0,2.08.05,4.25.15l7.98.46c3.6.2,6.15.3,7.67.3,4.61,0,8.61-.3,12-.91,1.32-.2,2.33-.3,3.04-.3.91,0,1.37.65,1.37,1.94,0,1.19-.76,1.94-2.28,2.25-2.94.56-5.34,2.07-7.19,4.53-1.85,2.46-4.5,7.57-7.95,15.33l-11.34,26.24-13.02,28.68c-4.21,9.38-6.5,14.4-6.85,15.06-2.74,5.63-4.29,8.87-4.64,9.74-.98,2.28-2.18,3.42-3.62,3.42-.98,0-1.75-.61-2.31-1.83l-1.75-3.88-1.9-4.64-18.04-40.92c-4.41-10.04-8.09-19.04-11.04-27-3.5-9.33-6.28-15.49-8.33-18.48-2.05-2.99-4.86-4.87-8.41-5.63-2.03-.41-3.04-1.26-3.04-2.55,0-1.39.71-2.09,2.13-2.09.4,0,1.16.05,2.28.15,2.58.3,5.6.46,9.04.46l12.76.38,7.98-.38c3.39-.2,5.6-.3,6.61-.3,1.42,0,2.13.7,2.13,2.09,0,1.19-1.07,1.99-3.2,2.4-3.76.66-5.63,2.84-5.63,6.54,0,4.56,2.78,13.59,8.34,27.07ZM609.23,158.43l.61,7.61c.61,3.9,2.09,6.9,4.45,8.97,2.36,2.08,5.44,3.12,9.25,3.12,2.49,0,3.73.77,3.73,2.32s-1.65,2.24-4.95,2.24c-1.42,0-3.45-.13-6.09-.4-6.6-.75-11.95-1.12-16.06-1.12-5.07,0-9.08.27-12.03.8-2.54.48-4.36.73-5.48.73s-1.83-.54-2.13-1.63l-.15-.62,2.21-1.78c3.65-1.32,6.08-2.93,7.27-4.83,1.19-1.9,1.79-5.06,1.79-9.46l.08-6.76v-60.57c0-4.66-.81-7.98-2.44-9.95-1.62-1.98-4.59-3.29-8.91-3.95-2.59-.41-4.25-.81-4.98-1.2-.74-.39-1.1-1.04-1.1-1.97,0-1.44.61-2.13,1.83-2.08.91.05,2.28.25,4.11.61,1.83.41,4.9.61,9.21.61,2.84,0,6.37-.17,10.58-.51l5.56-.43c5.23-.39,9.23-.58,12.03-.58,1.67,0,2.51.62,2.51,1.86,0,.93-.13,1.55-.38,1.86-.25.31-.89.54-1.9.7-3.65.61-6,1.62-7.04,3.04s-1.56,4.31-1.56,8.67v64.72ZM662.66,76.14c4.77,0,9.43.91,14,2.74l5.1,2.13c2.28.91,3.91,1.37,4.87,1.37.71,0,1.45-.18,2.21-.53l2.9-1.45c.41-.2.81-.3,1.22-.3,1.07,0,1.6.84,1.6,2.51l-.15,6.17c0,.96.05,1.88.15,2.74l.99,7.46.76,6.93c.1.61.15,1.12.15,1.52,0,2.18-.63,3.27-1.9,3.27-.91,0-1.57-.96-1.98-2.89-1.47-7.09-5.18-13.21-11.13-18.37-5.95-5.16-12.25-7.74-18.91-7.74-4.57,0-8.56,1.54-11.97,4.63-3.41,3.08-5.11,6.72-5.11,10.92,0,3.89,1.5,7.25,4.5,10.08,1.93,1.83,7.95,4.79,18.07,8.9,12.04,4.92,20.02,9.75,23.94,14.47,4.62,5.69,6.94,12.54,6.94,20.56,0,8.83-3.2,16.53-9.59,23.07-6.39,6.55-13.88,9.82-22.45,9.82-3.5,0-9.06-1.19-16.67-3.58-3.55-1.17-6.16-1.93-7.84-2.28-2.33-.46-3.69-.9-4.07-1.33-.38-.43-.7-1.74-.95-3.92-.25-2.38-1.02-5.83-2.28-10.35-1.93-6.9-2.89-11.32-2.89-13.24,0-2.44.79-3.65,2.36-3.65.71,0,1.22.61,1.52,1.82,2.49,8.71,6.81,16.02,12.96,21.95,6.15,5.92,12.53,8.88,19.13,8.88,5.13,0,9.72-1.96,13.76-5.88,4.04-3.92,6.06-8.41,6.06-13.47,0-4-1.05-7.29-3.16-9.87-2.11-2.58-5.75-5.01-10.94-7.29l-11.59-5.17c-10.92-4.87-18.34-9.48-22.26-13.82-3.91-4.34-5.87-10.12-5.87-17.33,0-8.38,2.73-15.39,8.18-21.02,5.45-5.63,12.24-8.45,20.36-8.45ZM806.37,97.64l-.76-6.62-.91-6.77-.53-4.64c-.2-1.98-1.27-2.97-3.2-2.97-.36,0-22.81.38-35.63.6l-2.74-61.39c6.13-1.2,10.49-4.16,10.49-7.64,0-4.53-7.38-8.21-16.48-8.21s-16.48,3.68-16.48,8.21c0,3.48,4.35,6.44,10.49,7.64l-2.74,61.39c-12.82-.22-35.27-.6-35.63-.6-1.93,0-2.99.99-3.2,2.97l-.53,4.64-.91,6.77-.76,6.62c-.46,2.54-.71,4.52-.76,5.94-.1,1.57.69,2.36,2.36,2.36,1.17,0,2.03-1.04,2.59-3.13l.61-2.14c1.52-5.55,2.73-9.02,3.61-10.42.89-1.4,2.68-2.66,5.37-3.78,3.7-1.48,10.63-2.22,20.78-2.22,4.31,0,6.47,2,6.47,6.01v129.94c0,24.66,8.75,35.21,8.75,35.21,0,0,8.75-10.54,8.75-35.21V90.26c0-4.01,2.16-6.01,6.47-6.01,10.15,0,17.08.74,20.78,2.22,2.69,1.12,4.48,2.38,5.37,3.78.89,1.4,2.09,4.88,3.61,10.42l.61,2.14c.56,2.09,1.42,3.13,2.59,3.13,1.67,0,2.46-.79,2.36-2.36-.05-1.42-.3-3.4-.76-5.94ZM212.98,18.36c-3.65-1.42-7.5-2.82-10.4.75-2.53,3.12-1.79,8.24,1.58,10.52,1.83,1.24,5.79,2.14,5.79,2.14,0,0-2.91,4-6.17,5.93-11.33,6.7-29.82,1.49-31.99-12.91,5.94,3.54,13.65,1.2,12.84-6.62-.55-5.36-6.7-7.91-11.34-5.85-.23-2.03.32-4.68,0-6.61-.35-2.08-3.46-5.3-5.85-5.7-2.39.4-5.51,3.62-5.85,5.7-.32,1.93.23,4.59,0,6.61-4.63-2.06-10.78.49-11.34,5.85-.8,7.81,6.91,10.16,12.84,6.62-2.17,14.41-20.66,19.61-31.99,12.91-3.26-1.93-6.17-5.93-6.17-5.93,0,0,3.95-.9,5.79-2.14,3.37-2.28,4.12-7.4,1.58-10.52-2.89-3.57-6.75-2.17-10.4-.75.37-7.93-6.62-12.76-13.98-12.47l16.67,47.56c14.2-1.46,28.5-2.6,42.83-2.67,14.33.07,28.63,1.2,42.83,2.67l16.67-47.56c-7.36-.29-14.35,4.54-13.98,12.47ZM207.41,56.62c-6.09-1.52-17.23-2.41-39.96-2.41s-33.87.89-39.96,2.41c-4.14,1.03-2.5,7.4-1.79,10.87,15.39-3.57,34.74-3.35,41.75-3.37,7.01.03,26.36-.2,41.75,3.37.71-3.47,2.35-9.84-1.79-10.87Z"/>
  </g>
</svg>